<mxfile host="app.diagrams.net" agent="Mozilla/5.0 (Windows NT 10.0; Win64; x64; rv:129.0) Gecko/20100101 Firefox/129.0" version="24.7.7">
  <diagram name="Page-1" id="RrrhsLTR8mJkc-qvqY5D">
    <mxGraphModel dx="2503" dy="1967" grid="1" gridSize="10" guides="1" tooltips="1" connect="1" arrows="1" fold="1" page="1" pageScale="1" pageWidth="850" pageHeight="1100" math="0" shadow="0">
      <root>
        <mxCell id="0" />
        <mxCell id="1" parent="0" />
        <mxCell id="hv8a3tn7kUgzhUhlci-B-43" value="AWS Cloud" style="points=[[0,0],[0.25,0],[0.5,0],[0.75,0],[1,0],[1,0.25],[1,0.5],[1,0.75],[1,1],[0.75,1],[0.5,1],[0.25,1],[0,1],[0,0.75],[0,0.5],[0,0.25]];outlineConnect=0;gradientColor=none;html=1;whiteSpace=wrap;fontSize=12;fontStyle=0;container=1;pointerEvents=0;collapsible=0;recursiveResize=0;shape=mxgraph.aws4.group;grIcon=mxgraph.aws4.group_aws_cloud_alt;strokeColor=#232F3E;fillColor=none;verticalAlign=top;align=left;spacingLeft=30;fontColor=#232F3E;dashed=0;" vertex="1" parent="1">
          <mxGeometry x="160" y="60" width="850" height="560" as="geometry" />
        </mxCell>
        <mxCell id="hv8a3tn7kUgzhUhlci-B-47" style="edgeStyle=orthogonalEdgeStyle;rounded=0;orthogonalLoop=1;jettySize=auto;html=1;" edge="1" parent="hv8a3tn7kUgzhUhlci-B-43" source="hv8a3tn7kUgzhUhlci-B-44" target="hv8a3tn7kUgzhUhlci-B-46">
          <mxGeometry relative="1" as="geometry" />
        </mxCell>
        <mxCell id="hv8a3tn7kUgzhUhlci-B-44" value="Amazon API Gateway" style="sketch=0;outlineConnect=0;fontColor=#232F3E;gradientColor=none;strokeColor=#ffffff;fillColor=#232F3E;dashed=0;verticalLabelPosition=middle;verticalAlign=bottom;align=center;html=1;whiteSpace=wrap;fontSize=10;fontStyle=1;spacing=3;shape=mxgraph.aws4.productIcon;prIcon=mxgraph.aws4.api_gateway;" vertex="1" parent="hv8a3tn7kUgzhUhlci-B-43">
          <mxGeometry x="136" y="235" width="80" height="110" as="geometry" />
        </mxCell>
        <mxCell id="hv8a3tn7kUgzhUhlci-B-50" style="edgeStyle=orthogonalEdgeStyle;rounded=0;orthogonalLoop=1;jettySize=auto;html=1;" edge="1" parent="hv8a3tn7kUgzhUhlci-B-43" source="hv8a3tn7kUgzhUhlci-B-46" target="hv8a3tn7kUgzhUhlci-B-49">
          <mxGeometry relative="1" as="geometry" />
        </mxCell>
        <mxCell id="hv8a3tn7kUgzhUhlci-B-59" style="edgeStyle=orthogonalEdgeStyle;rounded=0;orthogonalLoop=1;jettySize=auto;html=1;" edge="1" parent="hv8a3tn7kUgzhUhlci-B-43" source="hv8a3tn7kUgzhUhlci-B-46" target="hv8a3tn7kUgzhUhlci-B-44">
          <mxGeometry relative="1" as="geometry" />
        </mxCell>
        <mxCell id="hv8a3tn7kUgzhUhlci-B-46" value="&lt;div&gt;Load Balancer&lt;/div&gt;&lt;div&gt;&lt;br&gt;&lt;/div&gt;" style="sketch=0;outlineConnect=0;fontColor=#232F3E;gradientColor=none;fillColor=#8C4FFF;strokeColor=none;dashed=0;verticalLabelPosition=bottom;verticalAlign=top;align=center;html=1;fontSize=12;fontStyle=0;aspect=fixed;pointerEvents=1;shape=mxgraph.aws4.network_load_balancer;" vertex="1" parent="hv8a3tn7kUgzhUhlci-B-43">
          <mxGeometry x="256" y="251" width="78" height="78" as="geometry" />
        </mxCell>
        <mxCell id="hv8a3tn7kUgzhUhlci-B-51" value="Auto Scaling group" style="points=[[0,0],[0.25,0],[0.5,0],[0.75,0],[1,0],[1,0.25],[1,0.5],[1,0.75],[1,1],[0.75,1],[0.5,1],[0.25,1],[0,1],[0,0.75],[0,0.5],[0,0.25]];outlineConnect=0;gradientColor=none;html=1;whiteSpace=wrap;fontSize=12;fontStyle=0;container=1;pointerEvents=0;collapsible=0;recursiveResize=0;shape=mxgraph.aws4.groupCenter;grIcon=mxgraph.aws4.group_auto_scaling_group;grStroke=1;strokeColor=#D86613;fillColor=#E6E6E6;verticalAlign=top;align=center;fontColor=#D86613;dashed=1;spacingTop=25;" vertex="1" parent="hv8a3tn7kUgzhUhlci-B-43">
          <mxGeometry x="376" y="170" width="280" height="350" as="geometry" />
        </mxCell>
        <mxCell id="hv8a3tn7kUgzhUhlci-B-72" style="edgeStyle=orthogonalEdgeStyle;rounded=0;orthogonalLoop=1;jettySize=auto;html=1;" edge="1" parent="hv8a3tn7kUgzhUhlci-B-51" source="hv8a3tn7kUgzhUhlci-B-49" target="hv8a3tn7kUgzhUhlci-B-63">
          <mxGeometry relative="1" as="geometry" />
        </mxCell>
        <mxCell id="hv8a3tn7kUgzhUhlci-B-49" value="Amazon EKS" style="sketch=0;outlineConnect=0;fontColor=#232F3E;gradientColor=none;strokeColor=#ffffff;fillColor=#232F3E;dashed=0;verticalLabelPosition=middle;verticalAlign=bottom;align=center;html=1;whiteSpace=wrap;fontSize=10;fontStyle=1;spacing=3;shape=mxgraph.aws4.productIcon;prIcon=mxgraph.aws4.eks;" vertex="1" parent="hv8a3tn7kUgzhUhlci-B-51">
          <mxGeometry x="32.5" y="69" width="80" height="100" as="geometry" />
        </mxCell>
        <mxCell id="hv8a3tn7kUgzhUhlci-B-82" style="edgeStyle=orthogonalEdgeStyle;rounded=0;orthogonalLoop=1;jettySize=auto;html=1;" edge="1" parent="hv8a3tn7kUgzhUhlci-B-51" source="hv8a3tn7kUgzhUhlci-B-61" target="hv8a3tn7kUgzhUhlci-B-65">
          <mxGeometry relative="1" as="geometry" />
        </mxCell>
        <mxCell id="hv8a3tn7kUgzhUhlci-B-61" value="/transfer" style="sketch=0;outlineConnect=0;fontColor=#232F3E;gradientColor=none;fillColor=#ED7100;strokeColor=none;dashed=0;verticalLabelPosition=bottom;verticalAlign=top;align=center;html=1;fontSize=12;fontStyle=0;aspect=fixed;pointerEvents=1;shape=mxgraph.aws4.container_1;" vertex="1" parent="hv8a3tn7kUgzhUhlci-B-51">
          <mxGeometry x="170" y="280" width="48" height="31" as="geometry" />
        </mxCell>
        <mxCell id="hv8a3tn7kUgzhUhlci-B-73" style="edgeStyle=orthogonalEdgeStyle;rounded=0;orthogonalLoop=1;jettySize=auto;html=1;" edge="1" parent="hv8a3tn7kUgzhUhlci-B-51" source="hv8a3tn7kUgzhUhlci-B-63" target="hv8a3tn7kUgzhUhlci-B-64">
          <mxGeometry relative="1" as="geometry" />
        </mxCell>
        <mxCell id="hv8a3tn7kUgzhUhlci-B-63" value="/account/{clientId}" style="sketch=0;outlineConnect=0;fontColor=#232F3E;gradientColor=none;fillColor=#ED7100;strokeColor=none;dashed=0;verticalLabelPosition=top;verticalAlign=bottom;align=center;html=1;fontSize=12;fontStyle=0;aspect=fixed;pointerEvents=1;shape=mxgraph.aws4.container_1;labelPosition=center;" vertex="1" parent="hv8a3tn7kUgzhUhlci-B-51">
          <mxGeometry x="170" y="103.5" width="48" height="31" as="geometry" />
        </mxCell>
        <mxCell id="hv8a3tn7kUgzhUhlci-B-79" style="edgeStyle=orthogonalEdgeStyle;rounded=0;orthogonalLoop=1;jettySize=auto;html=1;" edge="1" parent="hv8a3tn7kUgzhUhlci-B-51" source="hv8a3tn7kUgzhUhlci-B-64" target="hv8a3tn7kUgzhUhlci-B-61">
          <mxGeometry relative="1" as="geometry" />
        </mxCell>
        <mxCell id="hv8a3tn7kUgzhUhlci-B-64" value="/account/{clientId}/saldo" style="sketch=0;outlineConnect=0;fontColor=#232F3E;gradientColor=none;fillColor=#ED7100;strokeColor=none;dashed=0;verticalLabelPosition=bottom;verticalAlign=top;align=center;html=1;fontSize=12;fontStyle=0;aspect=fixed;pointerEvents=1;shape=mxgraph.aws4.container_1;" vertex="1" parent="hv8a3tn7kUgzhUhlci-B-51">
          <mxGeometry x="170" y="190" width="48" height="31" as="geometry" />
        </mxCell>
        <mxCell id="hv8a3tn7kUgzhUhlci-B-65" value="/account/{clientId}/history" style="sketch=0;outlineConnect=0;fontColor=#232F3E;gradientColor=none;fillColor=#ED7100;strokeColor=none;dashed=0;verticalLabelPosition=bottom;verticalAlign=top;align=center;html=1;fontSize=12;fontStyle=0;aspect=fixed;pointerEvents=1;shape=mxgraph.aws4.container_1;" vertex="1" parent="hv8a3tn7kUgzhUhlci-B-51">
          <mxGeometry x="60" y="280" width="48" height="31" as="geometry" />
        </mxCell>
        <mxCell id="hv8a3tn7kUgzhUhlci-B-60" style="edgeStyle=orthogonalEdgeStyle;rounded=0;orthogonalLoop=1;jettySize=auto;html=1;" edge="1" parent="hv8a3tn7kUgzhUhlci-B-43" source="hv8a3tn7kUgzhUhlci-B-49" target="hv8a3tn7kUgzhUhlci-B-46">
          <mxGeometry relative="1" as="geometry" />
        </mxCell>
        <mxCell id="hv8a3tn7kUgzhUhlci-B-81" style="edgeStyle=orthogonalEdgeStyle;rounded=0;orthogonalLoop=1;jettySize=auto;html=1;" edge="1" parent="hv8a3tn7kUgzhUhlci-B-43" source="hv8a3tn7kUgzhUhlci-B-68" target="hv8a3tn7kUgzhUhlci-B-74">
          <mxGeometry relative="1" as="geometry">
            <Array as="points">
              <mxPoint x="826" y="470" />
              <mxPoint x="826" y="289" />
            </Array>
          </mxGeometry>
        </mxCell>
        <mxCell id="hv8a3tn7kUgzhUhlci-B-68" value="Amazon SQS" style="sketch=0;outlineConnect=0;fontColor=#232F3E;gradientColor=none;strokeColor=#ffffff;fillColor=#232F3E;dashed=0;verticalLabelPosition=middle;verticalAlign=bottom;align=center;html=1;whiteSpace=wrap;fontSize=10;fontStyle=1;spacing=3;shape=mxgraph.aws4.productIcon;prIcon=mxgraph.aws4.sqs;" vertex="1" parent="hv8a3tn7kUgzhUhlci-B-43">
          <mxGeometry x="696" y="415.5" width="80" height="100" as="geometry" />
        </mxCell>
        <mxCell id="hv8a3tn7kUgzhUhlci-B-77" style="edgeStyle=orthogonalEdgeStyle;rounded=0;orthogonalLoop=1;jettySize=auto;html=1;" edge="1" parent="hv8a3tn7kUgzhUhlci-B-43" source="hv8a3tn7kUgzhUhlci-B-74" target="hv8a3tn7kUgzhUhlci-B-63">
          <mxGeometry relative="1" as="geometry" />
        </mxCell>
        <mxCell id="hv8a3tn7kUgzhUhlci-B-78" style="edgeStyle=orthogonalEdgeStyle;rounded=0;orthogonalLoop=1;jettySize=auto;html=1;" edge="1" parent="hv8a3tn7kUgzhUhlci-B-43" source="hv8a3tn7kUgzhUhlci-B-74" target="hv8a3tn7kUgzhUhlci-B-64">
          <mxGeometry relative="1" as="geometry">
            <Array as="points">
              <mxPoint x="736" y="376" />
            </Array>
          </mxGeometry>
        </mxCell>
        <mxCell id="hv8a3tn7kUgzhUhlci-B-74" value="Amazon RDS" style="sketch=0;outlineConnect=0;fontColor=#232F3E;gradientColor=none;strokeColor=#ffffff;fillColor=#232F3E;dashed=0;verticalLabelPosition=middle;verticalAlign=bottom;align=center;html=1;whiteSpace=wrap;fontSize=10;fontStyle=1;spacing=3;shape=mxgraph.aws4.productIcon;prIcon=mxgraph.aws4.rds;" vertex="1" parent="hv8a3tn7kUgzhUhlci-B-43">
          <mxGeometry x="696" y="239" width="80" height="100" as="geometry" />
        </mxCell>
        <mxCell id="hv8a3tn7kUgzhUhlci-B-75" style="edgeStyle=orthogonalEdgeStyle;rounded=0;orthogonalLoop=1;jettySize=auto;html=1;" edge="1" parent="hv8a3tn7kUgzhUhlci-B-43" source="hv8a3tn7kUgzhUhlci-B-63" target="hv8a3tn7kUgzhUhlci-B-74">
          <mxGeometry relative="1" as="geometry" />
        </mxCell>
        <mxCell id="hv8a3tn7kUgzhUhlci-B-76" style="edgeStyle=orthogonalEdgeStyle;rounded=0;orthogonalLoop=1;jettySize=auto;html=1;" edge="1" parent="hv8a3tn7kUgzhUhlci-B-43" source="hv8a3tn7kUgzhUhlci-B-64" target="hv8a3tn7kUgzhUhlci-B-74">
          <mxGeometry relative="1" as="geometry" />
        </mxCell>
        <mxCell id="hv8a3tn7kUgzhUhlci-B-80" style="edgeStyle=orthogonalEdgeStyle;rounded=0;orthogonalLoop=1;jettySize=auto;html=1;" edge="1" parent="hv8a3tn7kUgzhUhlci-B-43" source="hv8a3tn7kUgzhUhlci-B-61" target="hv8a3tn7kUgzhUhlci-B-68">
          <mxGeometry relative="1" as="geometry" />
        </mxCell>
        <mxCell id="hv8a3tn7kUgzhUhlci-B-83" value="Amazon S3" style="sketch=0;outlineConnect=0;fontColor=#232F3E;gradientColor=none;strokeColor=#ffffff;fillColor=#232F3E;dashed=0;verticalLabelPosition=middle;verticalAlign=bottom;align=center;html=1;whiteSpace=wrap;fontSize=10;fontStyle=1;spacing=3;shape=mxgraph.aws4.productIcon;prIcon=mxgraph.aws4.s3;" vertex="1" parent="hv8a3tn7kUgzhUhlci-B-43">
          <mxGeometry x="254" y="415.5" width="80" height="100" as="geometry" />
        </mxCell>
        <mxCell id="hv8a3tn7kUgzhUhlci-B-84" style="edgeStyle=orthogonalEdgeStyle;rounded=0;orthogonalLoop=1;jettySize=auto;html=1;" edge="1" parent="hv8a3tn7kUgzhUhlci-B-43" source="hv8a3tn7kUgzhUhlci-B-65" target="hv8a3tn7kUgzhUhlci-B-83">
          <mxGeometry relative="1" as="geometry" />
        </mxCell>
        <mxCell id="hv8a3tn7kUgzhUhlci-B-86" value="Amazon CloudWatch" style="sketch=0;outlineConnect=0;fontColor=#232F3E;gradientColor=none;strokeColor=#ffffff;fillColor=#232F3E;dashed=0;verticalLabelPosition=middle;verticalAlign=bottom;align=center;html=1;whiteSpace=wrap;fontSize=10;fontStyle=1;spacing=3;shape=mxgraph.aws4.productIcon;prIcon=mxgraph.aws4.cloudwatch;" vertex="1" parent="hv8a3tn7kUgzhUhlci-B-43">
          <mxGeometry x="408.5" y="40" width="80" height="110" as="geometry" />
        </mxCell>
        <mxCell id="hv8a3tn7kUgzhUhlci-B-87" style="edgeStyle=orthogonalEdgeStyle;rounded=0;orthogonalLoop=1;jettySize=auto;html=1;" edge="1" parent="hv8a3tn7kUgzhUhlci-B-43" source="hv8a3tn7kUgzhUhlci-B-49" target="hv8a3tn7kUgzhUhlci-B-86">
          <mxGeometry relative="1" as="geometry" />
        </mxCell>
        <mxCell id="hv8a3tn7kUgzhUhlci-B-57" style="edgeStyle=orthogonalEdgeStyle;rounded=0;orthogonalLoop=1;jettySize=auto;html=1;" edge="1" parent="1" source="hv8a3tn7kUgzhUhlci-B-53" target="hv8a3tn7kUgzhUhlci-B-55">
          <mxGeometry relative="1" as="geometry" />
        </mxCell>
        <mxCell id="hv8a3tn7kUgzhUhlci-B-95" style="edgeStyle=orthogonalEdgeStyle;rounded=0;orthogonalLoop=1;jettySize=auto;html=1;" edge="1" parent="1" source="hv8a3tn7kUgzhUhlci-B-53" target="hv8a3tn7kUgzhUhlci-B-90">
          <mxGeometry relative="1" as="geometry" />
        </mxCell>
        <mxCell id="hv8a3tn7kUgzhUhlci-B-53" value="devices" style="sketch=0;outlineConnect=0;gradientColor=none;fontColor=#545B64;strokeColor=none;fillColor=#879196;dashed=0;verticalLabelPosition=bottom;verticalAlign=top;align=center;html=1;fontSize=12;fontStyle=0;aspect=fixed;shape=mxgraph.aws4.illustration_devices;pointerEvents=1" vertex="1" parent="1">
          <mxGeometry x="40" y="313.5" width="100" height="73" as="geometry" />
        </mxCell>
        <mxCell id="hv8a3tn7kUgzhUhlci-B-56" style="edgeStyle=orthogonalEdgeStyle;rounded=0;orthogonalLoop=1;jettySize=auto;html=1;" edge="1" parent="1" source="hv8a3tn7kUgzhUhlci-B-55" target="hv8a3tn7kUgzhUhlci-B-53">
          <mxGeometry relative="1" as="geometry" />
        </mxCell>
        <mxCell id="hv8a3tn7kUgzhUhlci-B-55" value="users" style="sketch=0;outlineConnect=0;gradientColor=none;fontColor=#545B64;strokeColor=none;fillColor=#879196;dashed=0;verticalLabelPosition=bottom;verticalAlign=top;align=center;html=1;fontSize=12;fontStyle=0;aspect=fixed;shape=mxgraph.aws4.illustration_users;pointerEvents=1" vertex="1" parent="1">
          <mxGeometry x="-100" y="300" width="100" height="100" as="geometry" />
        </mxCell>
        <mxCell id="hv8a3tn7kUgzhUhlci-B-88" value="&lt;div&gt;Prometheus&lt;/div&gt;&lt;div&gt;&lt;br&gt;&lt;/div&gt;" style="sketch=0;points=[[0,0,0],[0.25,0,0],[0.5,0,0],[0.75,0,0],[1,0,0],[0,1,0],[0.25,1,0],[0.5,1,0],[0.75,1,0],[1,1,0],[0,0.25,0],[0,0.5,0],[0,0.75,0],[1,0.25,0],[1,0.5,0],[1,0.75,0]];points=[[0,0,0],[0.25,0,0],[0.5,0,0],[0.75,0,0],[1,0,0],[0,1,0],[0.25,1,0],[0.5,1,0],[0.75,1,0],[1,1,0],[0,0.25,0],[0,0.5,0],[0,0.75,0],[1,0.25,0],[1,0.5,0],[1,0.75,0]];outlineConnect=0;fontColor=#232F3E;fillColor=#E7157B;strokeColor=#ffffff;dashed=0;verticalLabelPosition=top;verticalAlign=bottom;align=center;html=1;fontSize=12;fontStyle=0;aspect=fixed;shape=mxgraph.aws4.resourceIcon;resIcon=mxgraph.aws4.managed_service_for_prometheus;labelPosition=center;" vertex="1" parent="1">
          <mxGeometry x="570.5" y="-40" width="78" height="78" as="geometry" />
        </mxCell>
        <mxCell id="hv8a3tn7kUgzhUhlci-B-89" style="edgeStyle=orthogonalEdgeStyle;rounded=0;orthogonalLoop=1;jettySize=auto;html=1;" edge="1" parent="1" source="hv8a3tn7kUgzhUhlci-B-86" target="hv8a3tn7kUgzhUhlci-B-88">
          <mxGeometry relative="1" as="geometry" />
        </mxCell>
        <mxCell id="hv8a3tn7kUgzhUhlci-B-92" style="edgeStyle=orthogonalEdgeStyle;rounded=0;orthogonalLoop=1;jettySize=auto;html=1;" edge="1" parent="1" source="hv8a3tn7kUgzhUhlci-B-90" target="hv8a3tn7kUgzhUhlci-B-44">
          <mxGeometry relative="1" as="geometry" />
        </mxCell>
        <mxCell id="hv8a3tn7kUgzhUhlci-B-94" style="edgeStyle=orthogonalEdgeStyle;rounded=0;orthogonalLoop=1;jettySize=auto;html=1;" edge="1" parent="1" source="hv8a3tn7kUgzhUhlci-B-90" target="hv8a3tn7kUgzhUhlci-B-53">
          <mxGeometry relative="1" as="geometry" />
        </mxCell>
        <mxCell id="hv8a3tn7kUgzhUhlci-B-90" value="Amazon Cloudfront" style="sketch=0;outlineConnect=0;fontColor=#232F3E;gradientColor=none;strokeColor=#ffffff;fillColor=#232F3E;dashed=0;verticalLabelPosition=middle;verticalAlign=bottom;align=center;html=1;whiteSpace=wrap;fontSize=10;fontStyle=1;spacing=3;shape=mxgraph.aws4.productIcon;prIcon=mxgraph.aws4.cloudfront;" vertex="1" parent="1">
          <mxGeometry x="180" y="295" width="80" height="110" as="geometry" />
        </mxCell>
        <mxCell id="hv8a3tn7kUgzhUhlci-B-93" style="edgeStyle=orthogonalEdgeStyle;rounded=0;orthogonalLoop=1;jettySize=auto;html=1;" edge="1" parent="1" source="hv8a3tn7kUgzhUhlci-B-44" target="hv8a3tn7kUgzhUhlci-B-90">
          <mxGeometry relative="1" as="geometry" />
        </mxCell>
      </root>
    </mxGraphModel>
  </diagram>
</mxfile>
